<svg id="Capa_1" enable-background="new 0 0 512 512" height="512" viewBox="0 0 512 512" width="512" xmlns="http://www.w3.org/2000/svg"><g><path d="m451.757 102.858c27.32-1.81 49.045 6.438 49.261 6.521l10.982-27.923c-1.094-.432-27.206-10.543-60.905-8.613-28.437 1.628-67.313 12.259-98.51 51.753-.139-.11-.278-.219-.418-.328 41.389-53.971 27.719-110.865 27.067-113.451l-29.136 7.328c.124.492 11.208 46.656-23.476 90.021-47.662-23.56-103.559-18.44-139.211 17.121-4.585 4.574-9.349 9.633-14.159 15.037l-4.914 5.521 8.783 45.972-47.541 6.325-3.755 5.901c-22.182 34.86-41.521 72.516-57.786 108.363l38.43 38.43-21.213 21.213-30.124-30.124c-30.113 71.453-46.745 129.611-47.839 133.478l-7.293 25.781 25.824-7.267c3.085-.868 76.533-21.697 161.301-59.702l7.63-3.42 2.957-22.109 30.91 5.875 4.577-2.326c55.132-28.013 99.713-57.439 132.774-87.619l-56.985-56.986 21.213-21.213 56.491 56.492c14.17-18.896 21.839-42.375 21.838-67.534 0-23.079-6.456-46.261-18.301-67.079 3.308-1.423 7.261-2.741 11.726-3.54 18.129-3.238 36.622 3.33 54.958 19.528l19.909-22.468c-32.635-28.831-62.641-30.176-82.067-26.227-6.325 1.285-11.929 3.194-16.71 5.266 19.265-23.263 43.992-36.027 73.712-37.997z"/></g></svg>